<svg width="35" height="35" viewBox="0 0 35 35" fill="none" xmlns="http://www.w3.org/2000/svg">
<path d="M24.4433 15.3084C25.1619 15.3104 25.8738 15.1698 26.5377 14.8947C27.2016 14.6197 27.8044 14.2156 28.3111 13.706L33.5747 8.44579C33.991 8.02948 34.0293 7.35204 33.6328 6.91522C33.5333 6.80548 33.4125 6.7171 33.2778 6.65545C33.1431 6.5938 32.9972 6.56016 32.8491 6.55658C32.701 6.553 32.5537 6.57955 32.4161 6.63462C32.2786 6.68969 32.1537 6.77213 32.049 6.87694L27.3574 11.565C27.1999 11.7224 26.9864 11.8107 26.7637 11.8107C26.5411 11.8107 26.3276 11.7224 26.17 11.565C25.8426 11.2383 25.8604 10.6859 26.1871 10.3592L30.8581 5.68817C30.9628 5.58346 31.0452 5.45858 31.1002 5.3211C31.1552 5.18362 31.1817 5.0364 31.1781 4.88837C31.1745 4.74033 31.1409 4.59457 31.0794 4.45991C31.0178 4.32525 30.9295 4.20449 30.8199 4.10497C30.6219 3.92543 30.3638 3.82664 30.0966 3.82811C29.9466 3.82818 29.7981 3.85779 29.6596 3.91527C29.5211 3.97274 29.3953 4.05695 29.2893 4.16307L24.6224 8.82928C24.4649 8.98662 24.2513 9.07499 24.0287 9.07499C23.806 9.07499 23.5925 8.98662 23.435 8.82928C23.1082 8.50252 23.1253 7.95018 23.4521 7.62342L28.1231 2.95379C28.2278 2.84908 28.3101 2.7242 28.3651 2.58672C28.4201 2.44924 28.4466 2.30203 28.4431 2.15399C28.4395 2.00596 28.4059 1.8602 28.3443 1.72553C28.2827 1.59087 28.1944 1.47012 28.0848 1.37059C27.8868 1.19105 27.6288 1.09227 27.3615 1.09374C27.0587 1.09409 26.7684 1.21456 26.5542 1.4287L21.294 6.68895C20.7843 7.19577 20.3803 7.79864 20.1053 8.46266C19.8302 9.12669 19.6896 9.83868 19.6916 10.5574V11.12C19.6917 11.2638 19.6635 11.4063 19.6085 11.5392C19.5535 11.6721 19.4728 11.7928 19.371 11.8945L16.9367 14.3295C16.9113 14.3549 16.8812 14.3751 16.848 14.3888C16.8148 14.4026 16.7792 14.4097 16.7433 14.4097C16.7074 14.4097 16.6718 14.4026 16.6386 14.3888C16.6054 14.3751 16.5752 14.3549 16.5498 14.3295L4.70452 2.48348C4.50007 2.27881 4.22287 2.16346 3.93359 2.16269C3.6443 2.16193 3.36649 2.2758 3.16096 2.47938C2.12532 3.50545 1.57229 4.95399 1.57229 6.66776C1.56545 9.49784 3.05295 12.7517 5.45442 15.1498L11.2957 20.9911C12.126 21.8196 13.2509 22.2849 14.4239 22.2851C14.7978 22.2853 15.1702 22.2375 15.532 22.143C15.6228 22.1191 15.7163 22.107 15.8102 22.1067C16.0848 22.1068 16.3492 22.2105 16.5505 22.3973L17.3291 23.1164C17.5299 23.3216 17.6428 23.597 17.6436 23.8841V24.2628C17.6416 25.1237 17.9799 25.9505 18.5849 26.5631L24.7407 32.8227L24.7468 32.8296C25.43 33.5127 26.3567 33.8965 27.3228 33.8964C28.289 33.8963 29.2156 33.5125 29.8987 32.8292C30.5818 32.146 30.9656 31.2194 30.9655 30.2532C30.9655 29.287 30.5816 28.3605 29.8984 27.6773L20.6712 18.4502C20.6458 18.4248 20.6256 18.3946 20.6119 18.3614C20.5981 18.3282 20.591 18.2927 20.591 18.2567C20.591 18.2208 20.5981 18.1852 20.6119 18.152C20.6256 18.1188 20.6458 18.0887 20.6712 18.0633L23.1055 15.629C23.2071 15.5273 23.3277 15.4467 23.4605 15.3917C23.5933 15.3367 23.7356 15.3084 23.8793 15.3084H24.4433Z" fill="#1A1A1A"/>
<path d="M14.4238 24.4726C12.6727 24.469 10.9936 23.7751 9.75076 22.5415L8.80329 21.594C8.70077 21.4918 8.56187 21.4343 8.41706 21.4343C8.27225 21.4343 8.13335 21.4918 8.03083 21.594L2.22029 27.3745C1.18464 28.4101 0.814818 29.9346 1.32751 31.4275C1.35627 31.5116 1.39029 31.5938 1.42937 31.6736C2.11912 33.0859 3.45759 33.9062 4.92185 33.9062C5.42541 33.9075 5.92421 33.8088 6.38935 33.6159C6.8545 33.423 7.27674 33.1397 7.63162 32.7824L15.3808 24.9963C15.4135 24.963 15.4384 24.923 15.454 24.8791C15.4696 24.8352 15.4754 24.7884 15.4711 24.742V24.7242C15.468 24.6816 15.4564 24.64 15.4368 24.602C15.4173 24.564 15.3903 24.5304 15.3574 24.5031C15.3245 24.4758 15.2864 24.4555 15.2454 24.4433C15.2045 24.4311 15.1615 24.4274 15.119 24.4323C14.8881 24.4579 14.6561 24.4714 14.4238 24.4726Z" fill="#1A1A1A"/>
</svg>
