<svg width="36" height="36" viewBox="0 0 36 36" fill="none" xmlns="http://www.w3.org/2000/svg">
<path d="M5.875 27.4167C5.875 23.5 13.7083 21.3458 17.625 21.3458C21.5417 21.3458 29.375 23.5 29.375 27.4167V29.375H5.875M23.5 11.75C23.5 13.3081 22.881 14.8025 21.7793 15.9043C20.6775 17.006 19.1831 17.625 17.625 17.625C16.0669 17.625 14.5725 17.006 13.4707 15.9043C12.369 14.8025 11.75 13.3081 11.75 11.75C11.75 10.1919 12.369 8.69752 13.4707 7.59575C14.5725 6.49397 16.0669 5.875 17.625 5.875C19.1831 5.875 20.6775 6.49397 21.7793 7.59575C22.881 8.69752 23.5 10.1919 23.5 11.75ZM0 3.91667V31.3333C0 32.3721 0.412647 33.3683 1.14716 34.1028C1.88168 34.8374 2.8779 35.25 3.91667 35.25H31.3333C32.3721 35.25 33.3683 34.8374 34.1028 34.1028C34.8374 33.3683 35.25 32.3721 35.25 31.3333V3.91667C35.25 2.8779 34.8374 1.88168 34.1028 1.14716C33.3683 0.412647 32.3721 0 31.3333 0H3.91667C2.8779 0 1.88168 0.412647 1.14716 1.14716C0.412647 1.88168 0 2.8779 0 3.91667Z" fill="#1A1A1A"/>
</svg>
