<svg width="35" height="35" viewBox="0 0 35 35" fill="none" xmlns="http://www.w3.org/2000/svg">
<path d="M30.6251 30.625L24.2915 24.2915M24.2915 24.2915C25.3749 23.2081 26.2343 21.9219 26.8206 20.5064C27.4069 19.0909 27.7087 17.5738 27.7087 16.0417C27.7087 14.5095 27.4069 12.9924 26.8206 11.5769C26.2343 10.1614 25.3749 8.87525 24.2915 7.79187C23.2081 6.70849 21.922 5.84911 20.5065 5.26279C19.091 4.67647 17.5739 4.37469 16.0417 4.37469C14.5096 4.37469 12.9925 4.67647 11.577 5.26279C10.1615 5.84911 8.87531 6.70849 7.79193 7.79187C5.60395 9.97985 4.37476 12.9474 4.37476 16.0417C4.37476 19.1359 5.60395 22.1035 7.79193 24.2915C9.97991 26.4794 12.9475 27.7086 16.0417 27.7086C19.136 27.7086 22.1035 26.4794 24.2915 24.2915Z" stroke="#1A1A1A" stroke-width="2.5" stroke-linecap="round" stroke-linejoin="round"/>
</svg>
