<svg width="35" height="35" viewBox="0 0 35 35" fill="none" xmlns="http://www.w3.org/2000/svg">
<path d="M7.43748 19.6875C7.63192 19.4444 7.77776 19.1469 7.87498 18.795C7.9722 18.443 8.02081 18.0114 8.02081 17.5C8.02081 16.7708 7.77776 15.8472 7.29165 14.7292C6.80554 13.6111 6.56248 12.7726 6.56248 12.2135C6.56248 11.9219 6.59311 11.618 6.65436 11.3021C6.71561 10.9861 6.87942 10.6215 7.14581 10.2083H9.33331C9.06595 10.6215 8.90213 10.9861 8.84186 11.3021C8.78158 11.618 8.75095 11.9219 8.74998 12.2135C8.74998 12.7726 8.99304 13.6111 9.47915 14.7292C9.96526 15.8472 10.2083 16.7708 10.2083 17.5C10.2083 18.0104 10.1597 18.4299 10.0625 18.7585C9.96526 19.0871 9.81942 19.3968 9.62498 19.6875H7.43748ZM16.9166 19.6875C17.1111 19.4444 17.2569 19.1469 17.3541 18.795C17.4514 18.443 17.5 18.0114 17.5 17.5C17.5 16.7708 17.2569 15.8472 16.7708 14.7292C16.2847 13.6111 16.0416 12.7726 16.0416 12.2135C16.0416 11.9219 16.0723 11.618 16.1335 11.3021C16.1948 10.9861 16.3586 10.6215 16.625 10.2083H18.8125C18.5451 10.6215 18.3813 10.9861 18.321 11.3021C18.2607 11.618 18.2301 11.9219 18.2291 12.2135C18.2291 12.7726 18.4722 13.6111 18.9583 14.7292C19.4444 15.8472 19.6875 16.7708 19.6875 17.5C19.6875 18.0104 19.6389 18.4299 19.5416 18.7585C19.4444 19.0871 19.2986 19.3968 19.1041 19.6875H16.9166ZM12.1771 19.6875C12.3715 19.4444 12.5173 19.1469 12.6146 18.795C12.7118 18.443 12.7604 18.0114 12.7604 17.5C12.7604 16.7708 12.5173 15.8472 12.0312 14.7292C11.5451 13.6111 11.3021 12.7726 11.3021 12.2135C11.3021 11.9219 11.3327 11.618 11.3939 11.3021C11.4552 10.9861 11.619 10.6215 11.8854 10.2083H14.0729C13.8055 10.6215 13.6417 10.9861 13.5814 11.3021C13.5212 11.618 13.4905 11.9219 13.4896 12.2135C13.4896 12.7726 13.7326 13.6111 14.2187 14.7292C14.7048 15.8472 14.9479 16.7708 14.9479 17.5C14.9479 18.0104 14.8993 18.4299 14.8021 18.7585C14.7048 19.0871 14.559 19.3968 14.3646 19.6875H12.1771ZM14.2187 32.0833C11.7639 32.0833 9.60699 31.2633 7.74811 29.6231C5.88922 27.983 4.76484 25.9471 4.37498 23.5156C4.32637 23.0781 4.4479 22.6951 4.73956 22.3664C5.03123 22.0378 5.39581 21.874 5.83331 21.875H21.1823L22.7864 6.78124C22.908 5.68749 23.3761 4.76971 24.1908 4.02791C25.0055 3.2861 25.9836 2.91569 27.125 2.91666C28.3403 2.91666 29.3732 3.34201 30.2239 4.1927C31.0746 5.04339 31.5 6.07638 31.5 7.29166C31.5 7.63194 31.4698 8.08159 31.4096 8.64062L31.3177 9.47916L28.4375 9.11458L28.5104 8.36645C28.559 7.86867 28.5833 7.51041 28.5833 7.29166C28.5833 6.87846 28.4433 6.53235 28.1633 6.25333C27.8833 5.9743 27.5372 5.8343 27.125 5.83332C26.7361 5.83332 26.408 5.96117 26.1406 6.21687C25.8732 6.47256 25.7153 6.78221 25.6666 7.14583L23.9896 23.0052C23.7222 25.5816 22.6649 27.739 20.8177 29.4773C18.9705 31.2156 16.7708 32.0843 14.2187 32.0833Z" fill="#1A1A1A"/>
</svg>
